<svg width="18" height="18" viewBox="0 0 18 18" fill="none" xmlns="http://www.w3.org/2000/svg">
<path d="M8.25 13.4535C6.73703 13.261 5.35414 12.4996 4.38239 11.3241C3.41064 10.1486 2.92296 8.64715 3.01847 7.12498C3.11397 5.60281 3.7855 4.17412 4.89656 3.12929C6.00762 2.08446 7.47484 1.50189 9 1.5C10.527 1.49886 11.997 2.08001 13.1105 3.12501C14.224 4.17001 14.8971 5.60025 14.9927 7.12428C15.0883 8.64831 14.5992 10.1515 13.6251 11.3274C12.651 12.5034 11.2652 13.2638 9.75 13.4535V15.009C12.7095 15.078 15 15.5513 15 16.125C15 16.746 12.3135 17.25 9 17.25C5.6865 17.25 3 16.746 3 16.125C3 15.5513 5.2905 15.078 8.25 15.009V13.4535ZM9 12C10.1935 12 11.3381 11.5259 12.182 10.682C13.0259 9.83807 13.5 8.69348 13.5 7.5C13.5 6.30653 13.0259 5.16193 12.182 4.31802C11.3381 3.47411 10.1935 3 9 3C7.80653 3 6.66193 3.47411 5.81802 4.31802C4.97411 5.16193 4.5 6.30653 4.5 7.5C4.5 8.69348 4.97411 9.83807 5.81802 10.682C6.66193 11.5259 7.80653 12 9 12ZM9 9C8.60218 9 8.22064 8.84197 7.93934 8.56066C7.65804 8.27936 7.5 7.89783 7.5 7.5C7.5 7.10218 7.65804 6.72065 7.93934 6.43934C8.22064 6.15804 8.60218 6 9 6C9.39782 6 9.77936 6.15804 10.0607 6.43934C10.342 6.72065 10.5 7.10218 10.5 7.5C10.5 7.89783 10.342 8.27936 10.0607 8.56066C9.77936 8.84197 9.39782 9 9 9Z" fill="#656565"/>
</svg>
