<svg width="17" height="17" viewBox="0 0 17 17" fill="none" xmlns="http://www.w3.org/2000/svg">
<path d="M2.83329 11.3333V2.83332H1.41663V1.41666H3.54163C3.72949 1.41666 3.90965 1.49128 4.04249 1.62412C4.17533 1.75696 4.24996 1.93713 4.24996 2.12499V10.625H13.0602L14.4769 4.95832H5.66663V3.54166H15.385C15.4926 3.54166 15.5989 3.56621 15.6956 3.61344C15.7924 3.66067 15.8771 3.72933 15.9434 3.81421C16.0096 3.8991 16.0556 3.99796 16.0779 4.1033C16.1002 4.20864 16.0982 4.31767 16.072 4.42211L14.3012 11.5054C14.2628 11.6586 14.1744 11.7946 14.0499 11.8917C13.9254 11.9889 13.772 12.0417 13.6141 12.0417H3.54163C3.35376 12.0417 3.1736 11.967 3.04076 11.8342C2.90792 11.7014 2.83329 11.5212 2.83329 11.3333ZM4.24996 16.2917C3.87424 16.2917 3.5139 16.1424 3.24822 15.8767C2.98255 15.611 2.83329 15.2507 2.83329 14.875C2.83329 14.4993 2.98255 14.1389 3.24822 13.8733C3.5139 13.6076 3.87424 13.4583 4.24996 13.4583C4.62568 13.4583 4.98602 13.6076 5.25169 13.8733C5.51737 14.1389 5.66663 14.4993 5.66663 14.875C5.66663 15.2507 5.51737 15.611 5.25169 15.8767C4.98602 16.1424 4.62568 16.2917 4.24996 16.2917ZM12.75 16.2917C12.3742 16.2917 12.0139 16.1424 11.7482 15.8767C11.4825 15.611 11.3333 15.2507 11.3333 14.875C11.3333 14.4993 11.4825 14.1389 11.7482 13.8733C12.0139 13.6076 12.3742 13.4583 12.75 13.4583C13.1257 13.4583 13.486 13.6076 13.7517 13.8733C14.0174 14.1389 14.1666 14.4993 14.1666 14.875C14.1666 15.2507 14.0174 15.611 13.7517 15.8767C13.486 16.1424 13.1257 16.2917 12.75 16.2917Z" fill="black"/>
</svg>
