<svg width="13" height="13" viewBox="0 0 13 13" fill="none" xmlns="http://www.w3.org/2000/svg">
<path d="M3.52083 1.08337H9.47917C9.56326 1.08337 9.64619 1.10295 9.72141 1.14056C9.79662 1.17817 9.86205 1.23277 9.9125 1.30004L11.375 3.25004V11.375C11.375 11.5187 11.3179 11.6565 11.2164 11.7581C11.1148 11.8596 10.977 11.9167 10.8333 11.9167H2.16667C2.02301 11.9167 1.88523 11.8596 1.78365 11.7581C1.68207 11.6565 1.625 11.5187 1.625 11.375V3.25004L3.0875 1.30004C3.13795 1.23277 3.20338 1.17817 3.27859 1.14056C3.35381 1.10295 3.43674 1.08337 3.52083 1.08337ZM10.2917 4.33337H2.70833V10.8334H10.2917V4.33337ZM10.0208 3.25004L9.20833 2.16671H3.79167L2.97917 3.25004H10.0208ZM4.875 5.41671V6.50004C4.875 6.93102 5.0462 7.34434 5.35095 7.64909C5.6557 7.95384 6.06902 8.12504 6.5 8.12504C6.93098 8.12504 7.3443 7.95384 7.64905 7.64909C7.9538 7.34434 8.125 6.93102 8.125 6.50004V5.41671H9.20833V6.50004C9.20833 7.21834 8.92299 7.90721 8.41508 8.41512C7.90717 8.92303 7.2183 9.20837 6.5 9.20837C5.78171 9.20837 5.09283 8.92303 4.58492 8.41512C4.07701 7.90721 3.79167 7.21834 3.79167 6.50004V5.41671H4.875Z" fill="white"/>
</svg>
