<svg width="25" height="25" viewBox="0 0 25 25" fill="none" xmlns="http://www.w3.org/2000/svg">
<path d="M21.875 20.8334C21.875 21.1096 21.7653 21.3746 21.5699 21.5699C21.3746 21.7653 21.1096 21.875 20.8333 21.875H4.16667C3.8904 21.875 3.62545 21.7653 3.4301 21.5699C3.23475 21.3746 3.125 21.1096 3.125 20.8334V9.88546C3.12489 9.72672 3.16106 9.57006 3.23075 9.42743C3.30043 9.28481 3.40179 9.16 3.52708 9.06254L11.8604 2.58129C12.0433 2.43904 12.2683 2.36182 12.5 2.36182C12.7317 2.36182 12.9567 2.43904 13.1396 2.58129L21.4729 9.06254C21.5982 9.16 21.6996 9.28481 21.7693 9.42743C21.8389 9.57006 21.8751 9.72672 21.875 9.88546V20.8334ZM19.7917 19.7917V10.3938L12.5 4.72296L5.20833 10.3938V19.7917H19.7917ZM7.29167 15.625H17.7083V17.7084H7.29167V15.625Z" fill="black"/>
</svg>
