<svg width="13" height="16" viewBox="0 0 13 16" fill="none" xmlns="http://www.w3.org/2000/svg">
<path d="M10.75 6.08332C10.75 4.95615 10.3022 3.87515 9.50516 3.07812C8.70813 2.28109 7.62713 1.83332 6.49996 1.83332C5.37279 1.83332 4.29179 2.28109 3.49476 3.07812C2.69773 3.87515 2.24996 4.95615 2.24996 6.08332V11.75H10.75V6.08332ZM12.1666 12.2224L12.45 12.6C12.4894 12.6526 12.5135 12.7152 12.5194 12.7807C12.5253 12.8462 12.5128 12.912 12.4834 12.9709C12.454 13.0297 12.4088 13.0792 12.3528 13.1138C12.2969 13.1483 12.2324 13.1667 12.1666 13.1667H0.833293C0.76752 13.1667 0.703046 13.1483 0.647096 13.1138C0.591147 13.0792 0.545931 13.0297 0.516516 12.9709C0.487102 12.912 0.47465 12.8462 0.480557 12.7807C0.486464 12.7152 0.510496 12.6526 0.549959 12.6L0.833293 12.2224V6.08332C0.833293 4.58043 1.43031 3.13909 2.49302 2.07638C3.55573 1.01368 4.99707 0.416656 6.49996 0.416656C8.00285 0.416656 9.44419 1.01368 10.5069 2.07638C11.5696 3.13909 12.1666 4.58043 12.1666 6.08332V12.2224ZM4.72913 13.875H8.27079C8.27079 14.3446 8.08422 14.7951 7.75213 15.1272C7.42003 15.4593 6.96961 15.6458 6.49996 15.6458C6.0303 15.6458 5.57989 15.4593 5.24779 15.1272C4.9157 14.7951 4.72913 14.3446 4.72913 13.875Z" fill="black"/>
</svg>
