<svg width="23" height="23" viewBox="0 0 23 23" fill="none" xmlns="http://www.w3.org/2000/svg">
<path d="M6.22917 1.91663H16.7708C16.9196 1.91663 17.0663 1.95126 17.1994 2.0178C17.3325 2.08433 17.4482 2.18094 17.5375 2.29996L20.125 5.74996V20.125C20.125 20.3791 20.024 20.6229 19.8443 20.8026C19.6646 20.9823 19.4208 21.0833 19.1667 21.0833H3.83333C3.57917 21.0833 3.33541 20.9823 3.15569 20.8026C2.97597 20.6229 2.875 20.3791 2.875 20.125V5.74996L5.4625 2.29996C5.55177 2.18094 5.66752 2.08433 5.80059 2.0178C5.93366 1.95126 6.08039 1.91663 6.22917 1.91663ZM18.2083 7.66663H4.79167V19.1666H18.2083V7.66663ZM17.7292 5.74996L16.2917 3.83329H6.70833L5.27083 5.74996H17.7292ZM8.625 9.58329V11.5C8.625 12.2625 8.9279 12.9937 9.46707 13.5329C10.0062 14.0721 10.7375 14.375 11.5 14.375C12.2625 14.375 12.9938 14.0721 13.5329 13.5329C14.0721 12.9937 14.375 12.2625 14.375 11.5V9.58329H16.2917V11.5C16.2917 12.7708 15.7868 13.9896 14.8882 14.8882C13.9896 15.7868 12.7708 16.2916 11.5 16.2916C10.2292 16.2916 9.01039 15.7868 8.11178 14.8882C7.21317 13.9896 6.70833 12.7708 6.70833 11.5V9.58329H8.625Z" fill="black"/>
</svg>
