<svg width="23" height="23" viewBox="0 0 23 23" fill="none" xmlns="http://www.w3.org/2000/svg">
<path d="M19.1666 21.0834H17.25V19.1667C17.25 18.4042 16.9471 17.6729 16.4079 17.1338C15.8687 16.5946 15.1375 16.2917 14.375 16.2917H8.62498C7.86248 16.2917 7.13121 16.5946 6.59205 17.1338C6.05288 17.6729 5.74998 18.4042 5.74998 19.1667V21.0834H3.83331V19.1667C3.83331 17.8959 4.33815 16.6771 5.23676 15.7785C6.13537 14.8799 7.35415 14.375 8.62498 14.375H14.375C15.6458 14.375 16.8646 14.8799 17.7632 15.7785C18.6618 16.6771 19.1666 17.8959 19.1666 19.1667V21.0834ZM11.5 12.4584C10.7449 12.4584 9.99717 12.3096 9.29955 12.0207C8.60193 11.7317 7.96805 11.3082 7.43411 10.7742C6.90018 10.2403 6.47664 9.60643 6.18767 8.9088C5.89871 8.21118 5.74998 7.46348 5.74998 6.70837C5.74998 5.95327 5.89871 5.20557 6.18767 4.50794C6.47664 3.81032 6.90018 3.17645 7.43411 2.64251C7.96805 2.10857 8.60193 1.68503 9.29955 1.39607C9.99717 1.1071 10.7449 0.958374 11.5 0.958374C13.025 0.958374 14.4875 1.56418 15.5658 2.64251C16.6442 3.72084 17.25 5.18338 17.25 6.70837C17.25 8.23337 16.6442 9.6959 15.5658 10.7742C14.4875 11.8526 13.025 12.4584 11.5 12.4584ZM11.5 10.5417C12.5166 10.5417 13.4917 10.1378 14.2106 9.41895C14.9294 8.70006 15.3333 7.72504 15.3333 6.70837C15.3333 5.69171 14.9294 4.71669 14.2106 3.9978C13.4917 3.27891 12.5166 2.87504 11.5 2.87504C10.4833 2.87504 9.50829 3.27891 8.7894 3.9978C8.07051 4.71669 7.66665 5.69171 7.66665 6.70837C7.66665 7.72504 8.07051 8.70006 8.7894 9.41895C9.50829 10.1378 10.4833 10.5417 11.5 10.5417Z" fill="black"/>
</svg>
