<svg width="16" height="15" viewBox="0 0 16 15" fill="none" xmlns="http://www.w3.org/2000/svg">
<path d="M6.92773 1.25C10.0327 1.25 12.5527 3.77 12.5527 6.875C12.5527 9.98 10.0327 12.5 6.92773 12.5C3.82273 12.5 1.30273 9.98 1.30273 6.875C1.30273 3.77 3.82273 1.25 6.92773 1.25ZM6.92773 11.25C9.34461 11.25 11.3027 9.29187 11.3027 6.875C11.3027 4.4575 9.34461 2.5 6.92773 2.5C4.51023 2.5 2.55273 4.4575 2.55273 6.875C2.55273 9.29187 4.51023 11.25 6.92773 11.25ZM12.2309 11.2944L13.999 13.0619L13.1146 13.9462L11.3471 12.1781L12.2309 11.2944Z" fill="#8D8C8C"/>
</svg>
