<svg width="18" height="18" viewBox="0 0 18 18" fill="none" xmlns="http://www.w3.org/2000/svg">
<path d="M9.84003 12.7672L6.69078 11.0497C6.27963 11.4893 5.74577 11.795 5.15859 11.9271C4.5714 12.0593 3.95804 12.0118 3.39822 11.7907C2.8384 11.5697 2.358 11.1854 2.01946 10.6878C1.68091 10.1902 1.49988 9.60222 1.49988 9.00034C1.49988 8.39847 1.68091 7.81052 2.01946 7.31289C2.358 6.81525 2.8384 6.43096 3.39822 6.20994C3.95804 5.98892 4.5714 5.9414 5.15859 6.07355C5.74577 6.20571 6.27963 6.51142 6.69078 6.95097L9.84078 5.23347C9.66195 4.52553 9.74745 3.77666 10.0813 3.12725C10.4151 2.47783 10.9743 1.97246 11.654 1.70585C12.3338 1.43924 13.0875 1.4297 13.7738 1.67902C14.4601 1.92834 15.0319 2.41941 15.382 3.06017C15.7321 3.70092 15.8366 4.44739 15.6757 5.15963C15.5148 5.87187 15.0997 6.501 14.5082 6.92908C13.9167 7.35716 13.1893 7.5548 12.4625 7.48496C11.7356 7.41513 11.0592 7.0826 10.56 6.54972L7.41003 8.26722C7.53093 8.74824 7.53093 9.2517 7.41003 9.73272L10.5593 11.4502C11.0585 10.9173 11.7349 10.5848 12.4617 10.515C13.1886 10.4451 13.9159 10.6428 14.5075 11.0709C15.099 11.4989 15.5141 12.1281 15.675 12.8403C15.8358 13.5526 15.7314 14.299 15.3813 14.9398C15.0311 15.5805 14.4593 16.0716 13.773 16.3209C13.0867 16.5702 12.3331 16.5607 11.6533 16.2941C10.9735 16.0275 10.4143 15.5221 10.0805 14.8727C9.7467 14.2233 9.6612 13.4744 9.84003 12.7665V12.7672ZM4.50003 10.5C4.89786 10.5 5.27939 10.3419 5.56069 10.0606C5.842 9.77932 6.00003 9.39779 6.00003 8.99997C6.00003 8.60214 5.842 8.22061 5.56069 7.93931C5.27939 7.658 4.89786 7.49997 4.50003 7.49997C4.10221 7.49997 3.72068 7.658 3.43937 7.93931C3.15807 8.22061 3.00003 8.60214 3.00003 8.99997C3.00003 9.39779 3.15807 9.77932 3.43937 10.0606C3.72068 10.3419 4.10221 10.5 4.50003 10.5ZM12.75 5.99997C13.1479 5.99997 13.5294 5.84193 13.8107 5.56063C14.092 5.27933 14.25 4.89779 14.25 4.49997C14.25 4.10214 14.092 3.72061 13.8107 3.43931C13.5294 3.158 13.1479 2.99997 12.75 2.99997C12.3522 2.99997 11.9707 3.158 11.6894 3.43931C11.4081 3.72061 11.25 4.10214 11.25 4.49997C11.25 4.89779 11.4081 5.27933 11.6894 5.56063C11.9707 5.84193 12.3522 5.99997 12.75 5.99997ZM12.75 15C13.1479 15 13.5294 14.8419 13.8107 14.5606C14.092 14.2793 14.25 13.8978 14.25 13.5C14.25 13.1021 14.092 12.7206 13.8107 12.4393C13.5294 12.158 13.1479 12 12.75 12C12.3522 12 11.9707 12.158 11.6894 12.4393C11.4081 12.7206 11.25 13.1021 11.25 13.5C11.25 13.8978 11.4081 14.2793 11.6894 14.5606C11.9707 14.8419 12.3522 15 12.75 15Z" fill="#656565"/>
</svg>
